<svg width="512" height="512" viewBox="0 0 512 512" fill="none" xmlns="http://www.w3.org/2000/svg">
<rect width="512" height="512" rx="100" fill="#6E5C62"/>
<path d="M153.1 365C149.1 365 146.2 364.1 144.4 362.3C142.6 360.5 141.7 357.8 141.7 354.2V190.4H89.2C85.2 190.4 82.4 189.6 80.8 188C79.4 186.4 78.7 183.7 78.7 179.9V171.8C78.7 168 79.4 165.3 80.8 163.7C82.4 161.9 85.2 161 89.2 161H232.6C236.6 161 239.4 161.9 241 163.7C242.6 165.3 243.4 168 243.4 171.8V179.9C243.4 183.7 242.6 186.4 241 188C239.4 189.6 236.6 190.4 232.6 190.4H180.1V354.2C180.1 357.8 179.2 360.5 177.4 362.3C175.8 364.1 172.9 365 168.7 365H153.1ZM277.874 365C273.874 365 270.974 364.1 269.174 362.3C267.574 360.5 266.774 357.8 266.774 354.2V172.1C266.774 168.3 267.574 165.5 269.174 163.7C270.974 161.9 273.874 161 277.874 161H356.174C379.374 161 396.974 166.4 408.974 177.2C421.174 188 427.274 204 427.274 225.2C427.274 239.2 423.974 251.2 417.374 261.2C410.774 271 401.174 278.4 388.574 283.4L421.874 357.2C422.474 358.4 422.774 359.5 422.774 360.5C422.774 363.5 420.974 365 417.374 365H392.774C390.174 365 388.274 364.7 387.074 364.1C385.874 363.3 384.774 361.8 383.774 359.6L353.474 288.5H305.174V354.2C305.174 357.8 304.274 360.5 302.474 362.3C300.874 364.1 297.974 365 293.774 365H277.874ZM348.374 259.7C362.374 259.7 372.674 257 379.274 251.6C385.874 246.2 389.174 237.4 389.174 225.2C389.174 213.2 386.174 204.4 380.174 198.8C374.174 193.2 365.074 190.4 352.874 190.4H305.174V259.7H348.374Z" fill="white"/>
</svg>
