<svg width="192" height="192" viewBox="0 0 192 192" fill="none" xmlns="http://www.w3.org/2000/svg">
<rect width="192" height="192" rx="40" fill="#6E5C62"/>
<path d="M56.37 135C54.9033 135 53.84 134.67 53.18 134.01C52.52 133.35 52.19 132.36 52.19 131.04V70.98H32.94C31.4733 70.98 30.4467 70.6867 29.86 70.1C29.3467 69.5133 29.09 68.5233 29.09 67.13V64.16C29.09 62.7667 29.3467 61.7767 29.86 61.19C30.4467 60.53 31.4733 60.2 32.94 60.2H85.52C86.9867 60.2 88.0133 60.53 88.6 61.19C89.1867 61.7767 89.48 62.7667 89.48 64.16V67.13C89.48 68.5233 89.1867 69.5133 88.6 70.1C88.0133 70.6867 86.9867 70.98 85.52 70.98H66.27V131.04C66.27 132.36 65.94 133.35 65.28 134.01C64.6933 134.67 63.63 135 62.09 135H56.37ZM102.121 135C100.654 135 99.5905 134.67 98.9305 134.01C98.3439 133.35 98.0505 132.36 98.0505 131.04V64.27C98.0505 62.8767 98.3439 61.85 98.9305 61.19C99.5905 60.53 100.654 60.2 102.121 60.2H130.831C139.337 60.2 145.791 62.18 150.191 66.14C154.664 70.1 156.901 75.9667 156.901 83.74C156.901 88.8733 155.691 93.2733 153.271 96.94C150.851 100.533 147.331 103.247 142.711 105.08L154.921 132.14C155.141 132.58 155.251 132.983 155.251 133.35C155.251 134.45 154.591 135 153.271 135H144.251C143.297 135 142.601 134.89 142.161 134.67C141.721 134.377 141.317 133.827 140.951 133.02L129.841 106.95H112.131V131.04C112.131 132.36 111.801 133.35 111.141 134.01C110.554 134.67 109.491 135 107.951 135H102.121ZM127.971 96.39C133.104 96.39 136.881 95.4 139.301 93.42C141.721 91.44 142.931 88.2133 142.931 83.74C142.931 79.34 141.831 76.1133 139.631 74.06C137.431 72.0067 134.094 70.98 129.621 70.98H112.131V96.39H127.971Z" fill="white"/>
</svg>
